<?xml version="1.0" encoding="UTF-8"?><svg xmlns="http://www.w3.org/2000/svg" xmlns:xlink="http://www.w3.org/1999/xlink" viewBox="0 0 2000 2700"><defs><style>.cls-1{letter-spacing:-.07em;}.cls-2{letter-spacing:-.05em;}.cls-3{letter-spacing:-.05em;}.cls-4{letter-spacing:-.02em;}.cls-5{fill:#123b73;}.cls-6{letter-spacing:-.04em;}.cls-7{letter-spacing:-.08em;}.cls-8{letter-spacing:-.06em;}.cls-9{letter-spacing:-.06em;}.cls-10{letter-spacing:-.05em;}.cls-11{letter-spacing:-.03em;}.cls-12{letter-spacing:-.03em;}.cls-13{letter-spacing:-.05em;}.cls-14{letter-spacing:-.02em;}.cls-15{letter-spacing:-.12em;}.cls-16{letter-spacing:-.05em;}.cls-17{letter-spacing:-.03em;}.cls-18{letter-spacing:-.04em;}.cls-19{letter-spacing:-.05em;}.cls-20{letter-spacing:-.04em;}.cls-21{fill:#fff;}.cls-22,.cls-23{letter-spacing:-.02em;}.cls-22,.cls-24{font-family:Montserrat-Regular, Montserrat;font-size:60px;}.cls-25{letter-spacing:-.01em;}.cls-26{letter-spacing:-.04em;}.cls-27{letter-spacing:-.05em;}.cls-28{letter-spacing:-.05em;}.cls-29{letter-spacing:-.04em;}.cls-30{letter-spacing:-.03em;}.cls-31{letter-spacing:-.04em;}.cls-32{letter-spacing:-.06em;}.cls-33{letter-spacing:-.05em;}.cls-34{letter-spacing:-.05em;}.cls-35{letter-spacing:-.04em;}.cls-36{letter-spacing:-.05em;}.cls-37{letter-spacing:-.06em;}.cls-38{letter-spacing:-.05em;}.cls-39{letter-spacing:-.05em;}.cls-40{letter-spacing:-.05em;}.cls-41{letter-spacing:-.05em;}.cls-42{isolation:isolate;}.cls-43{letter-spacing:-.04em;}.cls-44{letter-spacing:-.02em;}.cls-45{letter-spacing:-.05em;}.cls-46{letter-spacing:-.06em;}.cls-47{letter-spacing:-.06em;}.cls-48{letter-spacing:-.06em;}.cls-49{letter-spacing:-.05em;}.cls-50{letter-spacing:-.05em;}.cls-51{letter-spacing:-.06em;}.cls-52{font-family:Montserrat-Bold, Montserrat;font-size:142.2px;font-weight:700;}.cls-53{letter-spacing:-.06em;}.cls-54{letter-spacing:-.05em;}.cls-55{letter-spacing:-.07em;}.cls-56{letter-spacing:-.03em;}.cls-57{letter-spacing:-.02em;}.cls-58{letter-spacing:-.05em;}.cls-59{letter-spacing:-.07em;}.cls-60{letter-spacing:-.04em;}.cls-61{letter-spacing:-.05em;}.cls-62{letter-spacing:-.06em;}.cls-63{letter-spacing:-.05em;}.cls-64{fill:url(#Gradiente_sem_nome_87);mix-blend-mode:darken;}.cls-65{letter-spacing:-.05em;}.cls-66{letter-spacing:-.05em;}.cls-67{letter-spacing:-.04em;}.cls-68{letter-spacing:-.05em;}.cls-69{letter-spacing:-.06em;}.cls-70{letter-spacing:-.07em;}.cls-71{letter-spacing:-.03em;}.cls-72{letter-spacing:-.03em;}.cls-73{letter-spacing:-.05em;}.cls-74{letter-spacing:-.07em;}.cls-75{letter-spacing:-.06em;}.cls-76{letter-spacing:-.12em;}.cls-77{letter-spacing:-.06em;}.cls-78{fill:#021c8b;}.cls-79{letter-spacing:-.04em;}.cls-80{letter-spacing:-.05em;}.cls-81{letter-spacing:-.02em;}.cls-82{letter-spacing:-.06em;}.cls-83{letter-spacing:-.01em;}.cls-84{letter-spacing:-.05em;}.cls-85{letter-spacing:-.05em;}.cls-86{letter-spacing:-.04em;}.cls-87{letter-spacing:-.05em;}.cls-88{letter-spacing:-.05em;}</style><radialGradient id="Gradiente_sem_nome_87" cx="-1869.23" cy="1350" fx="-1869.23" fy="1350" r="3026.58" gradientTransform="translate(-114.35)" gradientUnits="userSpaceOnUse"><stop offset=".15" stop-color="#fff"/><stop offset=".26" stop-color="#ceecec" stop-opacity=".81"/><stop offset=".47" stop-color="#77cbca" stop-opacity=".47"/><stop offset=".64" stop-color="#36b3b2" stop-opacity=".22"/><stop offset=".76" stop-color="#0fa4a2" stop-opacity=".06"/><stop offset=".83" stop-color="#009f9d" stop-opacity="0"/></radialGradient></defs><g class="cls-42"><g id="Layer_1"><rect class="cls-21" x="-6036.25" y="-31.63" width="8097.92" height="2775.83"/><rect class="cls-64" x="-6039.1" y="-37.91" width="8106.89" height="2775.83"/><text class="cls-5" transform="translate(707.5 994.01)"><tspan class="cls-24"><tspan class="cls-70" x="0" y="0">E</tspan><tspan class="cls-35" x="35.68" y="0">NT</tspan><tspan class="cls-36" x="113.59" y="0">R</tspan><tspan class="cls-23" x="154.17" y="0">E </tspan><tspan class="cls-70" x="207.63" y="0">E</tspan><tspan class="cls-23" x="243.31" y="0">M </tspan><tspan class="cls-69" x="313.93" y="0">C</tspan><tspan class="cls-29" x="353.36" y="0">O</tspan><tspan class="cls-18" x="401.02" y="0">N</tspan><tspan class="cls-15" x="447.15" y="0">T</tspan><tspan class="cls-76" x="474.54" y="0">A</tspan><tspan class="cls-7" x="510.57" y="0">T</tspan><tspan class="cls-14" x="540.38" y="0">O</tspan></tspan><tspan class="cls-52"><tspan class="cls-1" x="-410.43" y="249.48">V</tspan><tspan class="cls-81" x="-315.02" y="249.48">a</tspan><tspan class="cls-83" x="-230.13" y="249.48">m</tspan><tspan class="cls-81" x="-82.95" y="249.48">os </tspan><tspan class="cls-17" x="117.4" y="249.48">f</tspan><tspan class="cls-81" x="168.16" y="249.48">alar sob</tspan><tspan class="cls-30" x="731.97" y="249.48">r</tspan><tspan class="cls-81" x="789.14" y="249.48">e a </tspan></tspan><tspan class="cls-52"><tspan class="cls-81" x="-203.33" y="415.38">sua emp</tspan><tspan class="cls-30" x="414.95" y="415.38">r</tspan><tspan class="cls-81" x="472.11" y="415.38">es</tspan><tspan class="cls-48" x="631.66" y="415.38">a</tspan><tspan class="cls-81" x="710.29" y="415.38">?</tspan></tspan><tspan class="cls-22"><tspan x="295.36" y="498.97"></tspan></tspan><tspan class="cls-24"><tspan class="cls-87" x="-384.29" y="582.55">C</tspan><tspan class="cls-10" x="-344.34" y="582.55">o</tspan><tspan class="cls-46" x="-309.57" y="582.55">n</tspan><tspan class="cls-55" x="-272.77" y="582.55">t</tspan><tspan class="cls-14" x="-252.49" y="582.55">e </tspan><tspan class="cls-85" x="-202.93" y="582.55">p</tspan><tspan class="cls-9" x="-164.98" y="582.55">a</tspan><tspan class="cls-67" x="-133.05" y="582.55">r</tspan><tspan class="cls-23" x="-111.62" y="582.55">a a </tspan><tspan class="cls-67" x="-14.18" y="582.55">N</tspan><tspan class="cls-8" x="31.97" y="582.55">e</tspan><tspan class="cls-25" x="64.36" y="582.55">x</tspan><tspan class="cls-14" x="95.68" y="582.55">t </tspan><tspan class="cls-40" x="133.35" y="582.55">L</tspan><tspan class="cls-3" x="165.73" y="582.55">e</tspan><tspan class="cls-34" x="198.76" y="582.55">v</tspan><tspan class="cls-65" x="228.04" y="582.55">e</tspan><tspan class="cls-23" x="261.36" y="582.55">l </tspan><tspan class="cls-73" x="290.82" y="582.55">e</tspan><tspan class="cls-23" x="324.06" y="582.55">m </tspan><tspan class="cls-77" x="401.03" y="582.55">q</tspan><tspan class="cls-2" x="438.25" y="582.55">u</tspan><tspan class="cls-23" x="475.85" y="582.55">e </tspan><tspan class="cls-54" x="525.41" y="582.55">m</tspan><tspan class="cls-10" x="586.32" y="582.55">o</tspan><tspan class="cls-41" x="621.09" y="582.55">m</tspan><tspan class="cls-16" x="682.01" y="582.55">e</tspan><tspan class="cls-32" x="715.24" y="582.55">n</tspan><tspan class="cls-55" x="752.04" y="582.55">t</tspan><tspan class="cls-23" x="772.32" y="582.55">o o </tspan><tspan class="cls-72" x="874.19" y="582.55">s</tspan><tspan class="cls-38" x="901.49" y="582.55">e</tspan><tspan class="cls-23" x="934.63" y="582.55">u </tspan></tspan><tspan class="cls-24"><tspan class="cls-45" x="-350.57" y="666.13">n</tspan><tspan class="cls-31" x="-312.76" y="666.13">e</tspan><tspan class="cls-2" x="-278.66" y="666.13">g</tspan><tspan class="cls-20" x="-240.27" y="666.13">ó</tspan><tspan class="cls-53" x="-204.76" y="666.13">c</tspan><tspan class="cls-63" x="-174.29" y="666.13">i</tspan><tspan class="cls-23" x="-161.21" y="666.13">o </tspan><tspan class="cls-60" x="-110.27" y="666.13">e</tspan><tspan class="cls-44" x="-76.23" y="666.13">s</tspan><tspan class="cls-49" x="-48.22" y="666.13">t</tspan><tspan class="cls-79" x="-26.74" y="666.13">á</tspan><tspan class="cls-23" x="6.44" y="666.13">. </tspan><tspan class="cls-67" x="32.48" y="666.13">N</tspan><tspan class="cls-6" x="78.64" y="666.13">o</tspan><tspan class="cls-71" x="114.09" y="666.13">s</tspan><tspan class="cls-72" x="141.84" y="666.13">s</tspan><tspan class="cls-23" x="169.14" y="666.13">o </tspan><tspan class="cls-47" x="220.08" y="666.13">a</tspan><tspan class="cls-55" x="251.75" y="666.13">t</tspan><tspan class="cls-73" x="272.03" y="666.13">e</tspan><tspan class="cls-45" x="305.26" y="666.13">n</tspan><tspan class="cls-75" x="343.07" y="666.13">d</tspan><tspan class="cls-82" x="380.29" y="666.13">i</tspan><tspan class="cls-41" x="392.82" y="666.13">m</tspan><tspan class="cls-16" x="453.73" y="666.13">e</tspan><tspan class="cls-32" x="486.96" y="666.13">n</tspan><tspan class="cls-55" x="523.76" y="666.13">t</tspan><tspan class="cls-23" x="544.04" y="666.13">o é </tspan><tspan class="cls-75" x="644.54" y="666.13">d</tspan><tspan class="cls-62" x="681.75" y="666.13">i</tspan><tspan class="cls-59" x="694.28" y="666.13">r</tspan><tspan class="cls-33" x="714.32" y="666.13">e</tspan><tspan class="cls-55" x="747.29" y="666.13">t</tspan><tspan class="cls-14" x="767.56" y="666.13">o </tspan><tspan class="cls-26" x="818.5" y="666.13">p</tspan><tspan class="cls-13" x="857.08" y="666.13">e</tspan><tspan class="cls-27" x="890.4" y="666.13">l</tspan><tspan class="cls-23" x="903.67" y="666.13">o </tspan></tspan><tspan class="cls-24"><tspan class="cls-68" x="-476.63" y="749.72">W</tspan><tspan class="cls-61" x="-413.22" y="749.72">h</tspan><tspan class="cls-47" x="-375.83" y="749.72">a</tspan><tspan class="cls-4" x="-344.15" y="749.72">t</tspan><tspan class="cls-12" x="-320.93" y="749.72">s</tspan><tspan class="cls-86" x="-293.13" y="749.72">A</tspan><tspan class="cls-50" x="-252.33" y="749.72">p</tspan><tspan class="cls-23" x="-214.39" y="749.72">p </tspan><tspan class="cls-28" x="-160.39" y="749.72">p</tspan><tspan class="cls-77" x="-122.43" y="749.72">a</tspan><tspan class="cls-67" x="-90.5" y="749.72">r</tspan><tspan class="cls-23" x="-69.07" y="749.72">a </tspan><tspan class="cls-73" x="-20.35" y="749.72">e</tspan><tspan class="cls-46" x="12.88" y="749.72">n</tspan><tspan class="cls-55" x="49.69" y="749.72">t</tspan><tspan class="cls-73" x="69.96" y="749.72">e</tspan><tspan class="cls-66" x="103.19" y="749.72">n</tspan><tspan class="cls-50" x="141.01" y="749.72">d</tspan><tspan class="cls-73" x="178.95" y="749.72">e</tspan><tspan class="cls-23" x="212.18" y="749.72">r </tspan><tspan class="cls-88" x="249.56" y="749.72">s</tspan><tspan class="cls-63" x="275.97" y="749.72">u</tspan><tspan class="cls-23" x="313.29" y="749.72">a </tspan><tspan class="cls-45" x="362.01" y="749.72">n</tspan><tspan class="cls-31" x="399.82" y="749.72">e</tspan><tspan class="cls-19" x="433.92" y="749.72">c</tspan><tspan class="cls-60" x="464.66" y="749.72">e</tspan><tspan class="cls-56" x="498.71" y="749.72">s</tspan><tspan class="cls-84" x="526.46" y="749.72">s</tspan><tspan class="cls-63" x="553.07" y="749.72">i</tspan><tspan class="cls-39" x="566.15" y="749.72">d</tspan><tspan class="cls-58" x="603.8" y="749.72">a</tspan><tspan class="cls-50" x="636.35" y="749.72">d</tspan><tspan class="cls-23" x="674.3" y="749.72">e e </tspan><tspan class="cls-10" x="773.42" y="749.72">o</tspan><tspan class="cls-37" x="808.19" y="749.72">r</tspan><tspan class="cls-63" x="828.65" y="749.72">i</tspan><tspan class="cls-16" x="841.73" y="749.72">e</tspan><tspan class="cls-46" x="874.96" y="749.72">n</tspan><tspan class="cls-49" x="911.77" y="749.72">t</tspan><tspan class="cls-9" x="933.25" y="749.72">a</tspan><tspan class="cls-23" x="965.18" y="749.72">r </tspan><tspan class="cls-6" x="1002.56" y="749.72">o</tspan><tspan class="cls-23" x="1038.01" y="749.72">s </tspan></tspan><tspan class="cls-24"><tspan class="cls-50" x="58.1" y="833.3">p</tspan><tspan class="cls-74" x="96.04" y="833.3">r</tspan><tspan class="cls-51" x="115.99" y="833.3">ó</tspan><tspan class="cls-80" x="149.72" y="833.3">x</tspan><tspan class="cls-82" x="178.78" y="833.3">i</tspan><tspan class="cls-41" x="191.31" y="833.3">m</tspan><tspan class="cls-6" x="252.22" y="833.3">o</tspan><tspan class="cls-23" x="287.67" y="833.3">s </tspan><tspan class="cls-85" x="330.33" y="833.3">p</tspan><tspan class="cls-43" x="368.29" y="833.3">a</tspan><tspan class="cls-56" x="401.09" y="833.3">s</tspan><tspan class="cls-11" x="428.84" y="833.3">s</tspan><tspan class="cls-6" x="456.14" y="833.3">o</tspan><tspan class="cls-57" x="491.6" y="833.3">s</tspan><tspan class="cls-23" x="519.9" y="833.3">.</tspan></tspan></text><rect class="cls-78" y="2346.93" width="2067.79" height="397.28"/><rect class="cls-78" y="-31.63" width="2067.79" height="397.28"/></g></g></svg>